<svg width="225" height="64" viewBox="0 0 225 64" fill="none" xmlns="http://www.w3.org/2000/svg">
<path d="M79.56 46.76C76.9733 46.76 74.7867 46.3467 73 45.52C71.24 44.6933 69.8933 43.56 68.96 42.12C68.0267 40.6533 67.56 39 67.56 37.16H73.12C73.12 37.9333 73.3333 38.6933 73.76 39.44C74.1867 40.16 74.8667 40.7467 75.8 41.2C76.76 41.6533 78.0133 41.88 79.56 41.88C80.9467 41.88 82.1067 41.68 83.04 41.28C83.9733 40.88 84.6667 40.36 85.12 39.72C85.5733 39.0533 85.8 38.3067 85.8 37.48C85.8 36.44 85.36 35.6133 84.48 35C83.6 34.36 82.24 33.96 80.4 33.8L77.84 33.6C75.04 33.36 72.8 32.4933 71.12 31C69.4667 29.48 68.64 27.48 68.64 25C68.64 23.1333 69.08 21.5333 69.96 20.2C70.84 18.84 72.0667 17.8 73.64 17.08C75.24 16.3333 77.1067 15.96 79.24 15.96C81.4533 15.96 83.36 16.3467 84.96 17.12C86.56 17.8933 87.8 18.9867 88.68 20.4C89.56 21.7867 90 23.4267 90 25.32H84.44C84.44 24.52 84.24 23.7867 83.84 23.12C83.4667 22.4267 82.8933 21.88 82.12 21.48C81.3733 21.0533 80.4133 20.84 79.24 20.84C78.12 20.84 77.1867 21.0267 76.44 21.4C75.6933 21.7733 75.1333 22.28 74.76 22.92C74.3867 23.56 74.2 24.2533 74.2 25C74.2 25.9067 74.5333 26.7067 75.2 27.4C75.8667 28.0667 76.92 28.4533 78.36 28.56L80.92 28.8C83 28.96 84.8267 29.4 86.4 30.12C87.9733 30.84 89.1867 31.8133 90.04 33.04C90.92 34.2667 91.36 35.7467 91.36 37.48C91.36 39.32 90.88 40.9467 89.92 42.36C88.96 43.7467 87.5867 44.8267 85.8 45.6C84.04 46.3733 81.96 46.76 79.56 46.76ZM105.833 46.76C103.966 46.76 102.326 46.44 100.913 45.8C99.5265 45.16 98.3665 44.3067 97.4331 43.24C96.5265 42.1467 95.8331 40.9333 95.3531 39.6C94.8998 38.2667 94.6731 36.9067 94.6731 35.52V34.76C94.6731 33.32 94.8998 31.9333 95.3531 30.6C95.8331 29.24 96.5265 28.04 97.4331 27C98.3665 25.9333 99.5131 25.0933 100.873 24.48C102.233 23.84 103.806 23.52 105.593 23.52C107.94 23.52 109.9 24.04 111.473 25.08C113.073 26.0933 114.273 27.44 115.073 29.12C115.873 30.7733 116.273 32.56 116.273 34.48V36.48H97.0331V33.08H112.793L111.073 34.76C111.073 33.3733 110.873 32.1867 110.473 31.2C110.073 30.2133 109.46 29.4533 108.633 28.92C107.833 28.3867 106.82 28.12 105.593 28.12C104.366 28.12 103.326 28.4 102.473 28.96C101.62 29.52 100.966 30.3333 100.513 31.4C100.086 32.44 99.8731 33.6933 99.8731 35.16C99.8731 36.52 100.086 37.7333 100.513 38.8C100.94 39.84 101.593 40.6667 102.473 41.28C103.353 41.8667 104.473 42.16 105.833 42.16C107.193 42.16 108.3 41.8933 109.153 41.36C110.006 40.8 110.553 40.12 110.793 39.32H115.913C115.593 40.8133 114.98 42.12 114.073 43.24C113.166 44.36 112.006 45.2267 110.593 45.84C109.206 46.4533 107.62 46.76 105.833 46.76ZM120.918 46V24.28H125.318V33.6H124.918C124.918 31.4133 125.198 29.5867 125.758 28.12C126.318 26.6267 127.144 25.5067 128.238 24.76C129.358 23.9867 130.744 23.6 132.398 23.6H132.638C134.318 23.6 135.704 23.9867 136.798 24.76C137.918 25.5067 138.744 26.6267 139.278 28.12C139.838 29.5867 140.118 31.4133 140.118 33.6H138.718C138.718 31.4133 138.998 29.5867 139.558 28.12C140.144 26.6267 140.984 25.5067 142.078 24.76C143.198 23.9867 144.584 23.6 146.238 23.6H146.478C148.158 23.6 149.558 23.9867 150.678 24.76C151.798 25.5067 152.638 26.6267 153.198 28.12C153.784 29.5867 154.078 31.4133 154.078 33.6V46H148.518V33.08C148.518 31.72 148.171 30.64 147.478 29.84C146.784 29.0133 145.798 28.6 144.518 28.6C143.238 28.6 142.211 29.0267 141.438 29.88C140.664 30.7067 140.278 31.8267 140.278 33.24V46H134.718V33.08C134.718 31.72 134.371 30.64 133.678 29.84C132.984 29.0133 131.998 28.6 130.718 28.6C129.438 28.6 128.411 29.0267 127.638 29.88C126.864 30.7067 126.478 31.8267 126.478 33.24V46H120.918ZM160.019 54V24.28H164.419V33.64L163.739 33.6C163.846 31.3867 164.299 29.5333 165.099 28.04C165.926 26.5467 167.019 25.44 168.379 24.72C169.739 23.9733 171.259 23.6 172.939 23.6C174.486 23.6 175.873 23.88 177.099 24.44C178.353 25 179.419 25.7867 180.299 26.8C181.206 27.8133 181.899 29 182.379 30.36C182.859 31.6933 183.099 33.1333 183.099 34.68V35.52C183.099 37.0933 182.859 38.56 182.379 39.92C181.926 41.2533 181.246 42.44 180.339 43.48C179.459 44.4933 178.393 45.2933 177.139 45.88C175.886 46.44 174.486 46.72 172.939 46.72C171.313 46.72 169.819 46.3867 168.459 45.72C167.126 45.0267 166.046 43.9733 165.219 42.56C164.393 41.12 163.926 39.2667 163.819 37L165.579 39.68V54H160.019ZM171.539 42.04C172.739 42.04 173.779 41.7467 174.659 41.16C175.566 40.5733 176.273 39.76 176.779 38.72C177.286 37.6533 177.539 36.4533 177.539 35.12C177.539 33.7333 177.286 32.5333 176.779 31.52C176.273 30.5067 175.566 29.72 174.659 29.16C173.779 28.5733 172.739 28.28 171.539 28.28C170.446 28.28 169.433 28.52 168.499 29C167.593 29.48 166.846 30.1867 166.259 31.12C165.699 32.0533 165.419 33.1733 165.419 34.48V36.08C165.419 37.3333 165.713 38.4 166.299 39.28C166.886 40.16 167.646 40.84 168.579 41.32C169.513 41.8 170.499 42.04 171.539 42.04ZM189.028 46V24.28H194.588V46H189.028ZM185.988 28.44V24.28H194.588V28.44H185.988ZM191.068 21.68C189.975 21.68 189.161 21.4 188.628 20.84C188.121 20.2533 187.868 19.5333 187.868 18.68C187.868 17.7733 188.121 17.04 188.628 16.48C189.161 15.92 189.975 15.64 191.068 15.64C192.161 15.64 192.961 15.92 193.468 16.48C193.975 17.04 194.228 17.7733 194.228 18.68C194.228 19.5333 193.975 20.2533 193.468 20.84C192.961 21.4 192.161 21.68 191.068 21.68ZM211.436 46.76C209.516 46.76 207.823 46.4533 206.356 45.84C204.889 45.2267 203.649 44.4 202.636 43.36C201.623 42.2933 200.849 41.0933 200.316 39.76C199.809 38.4267 199.556 37.04 199.556 35.6V34.76C199.556 33.2667 199.823 31.8533 200.356 30.52C200.916 29.16 201.703 27.96 202.716 26.92C203.756 25.8533 205.009 25.0267 206.476 24.44C207.943 23.8267 209.596 23.52 211.436 23.52C213.276 23.52 214.929 23.8267 216.396 24.44C217.863 25.0267 219.103 25.8533 220.116 26.92C221.156 27.96 221.943 29.16 222.476 30.52C223.009 31.8533 223.276 33.2667 223.276 34.76V35.6C223.276 37.04 223.009 38.4267 222.476 39.76C221.969 41.0933 221.209 42.2933 220.196 43.36C219.183 44.4 217.943 45.2267 216.476 45.84C215.009 46.4533 213.329 46.76 211.436 46.76ZM211.436 42C212.796 42 213.943 41.7067 214.876 41.12C215.809 40.5067 216.516 39.6933 216.996 38.68C217.476 37.64 217.716 36.4667 217.716 35.16C217.716 33.8267 217.463 32.6533 216.956 31.64C216.476 30.6 215.756 29.7867 214.796 29.2C213.863 28.5867 212.743 28.28 211.436 28.28C210.129 28.28 208.996 28.5867 208.036 29.2C207.103 29.7867 206.383 30.6 205.876 31.64C205.369 32.6533 205.116 33.8267 205.116 35.16C205.116 36.4667 205.356 37.64 205.836 38.68C206.343 39.6933 207.063 40.5067 207.996 41.12C208.929 41.7067 210.076 42 211.436 42Z" fill="black"/>
<rect y="2" width="56.3314" height="56.3314" rx="16" fill="#40916C"/>
<path d="M45.6318 15.3498C45.6117 15.0053 45.4657 14.6801 45.2217 14.4361C44.9777 14.1921 44.6525 14.0461 44.308 14.026C30.9064 13.2391 20.1718 17.2739 15.5948 24.8434C14.0083 27.4327 13.2266 30.4349 13.3486 33.4691C13.449 36.2716 14.2658 39.1023 15.7762 41.8924L12.3417 45.3251C12.0774 45.5894 11.929 45.9478 11.929 46.3215C11.929 46.6952 12.0774 47.0536 12.3417 47.3179C12.606 47.5821 12.9644 47.7306 13.3381 47.7306C13.7118 47.7306 14.0702 47.5821 14.3344 47.3179L17.7671 43.8834C20.5555 45.392 23.3879 46.2088 26.1887 46.3092C26.3846 46.3162 26.58 46.3197 26.7749 46.3197C29.6121 46.3273 32.3956 45.546 34.8144 44.063C42.3839 39.486 46.4204 28.7531 45.6318 15.3498ZM33.3621 41.6548C29.3573 44.0806 24.6167 44.1193 19.8584 41.7903L35.4604 26.1901C35.5913 26.0592 35.6951 25.9039 35.7659 25.7329C35.8367 25.562 35.8731 25.3788 35.8731 25.1937C35.8731 25.0087 35.8367 24.8254 35.7659 24.6545C35.6951 24.4835 35.5913 24.3282 35.4604 24.1973C35.3296 24.0665 35.1743 23.9627 35.0033 23.8919C34.8323 23.8211 34.6491 23.7846 34.4641 23.7846C34.279 23.7846 34.0958 23.8211 33.9249 23.8919C33.7539 23.9627 33.5986 24.0665 33.4677 24.1973L17.8675 39.8064C15.5455 35.0535 15.579 30.3005 18.003 26.3027C21.8916 19.8827 31.1353 16.3673 42.8786 16.7863C43.2993 28.5208 39.7821 37.7662 33.3621 41.6548Z" fill="#F6FFDE"/>
</svg>
